<?xml version="1.0" encoding="UTF-8"?><svg xmlns="http://www.w3.org/2000/svg" xmlns:xlink="http://www.w3.org/1999/xlink" contentScriptType="text/ecmascript" width="36" zoomAndPan="magnify" contentStyleType="text/css" viewBox="0 0 36 36.000001" height="36.000001" preserveAspectRatio="xMidYMid meet" version="1.0"><defs><clipPath id="clip-0"><path d="M 1 0 L 35 0 L 35 35.027344 L 1 35.027344 Z M 1 0 " clip-rule="nonzero"/></clipPath><clipPath id="clip-1"><path d="M 0.488281 2 L 2 2 L 2 4 L 0.488281 4 Z M 0.488281 2 " clip-rule="nonzero"/></clipPath><clipPath id="clip-2"><path d="M 0.488281 11 L 2 11 L 2 13 L 0.488281 13 Z M 0.488281 11 " clip-rule="nonzero"/></clipPath><clipPath id="clip-3"><path d="M 0.488281 6 L 2 6 L 2 8 L 0.488281 8 Z M 0.488281 6 " clip-rule="nonzero"/></clipPath><clipPath id="clip-4"><path d="M 34 2 L 35.511719 2 L 35.511719 4 L 34 4 Z M 34 2 " clip-rule="nonzero"/></clipPath><clipPath id="clip-5"><path d="M 34 11 L 35.511719 11 L 35.511719 13 L 34 13 Z M 34 11 " clip-rule="nonzero"/></clipPath><clipPath id="clip-6"><path d="M 34 6 L 35.511719 6 L 35.511719 8 L 34 8 Z M 34 6 " clip-rule="nonzero"/></clipPath></defs><path fill="rgb(100%, 91.758728%, 65.489197%)" d="M 27.039062 9.605469 L 27.039062 14.125 L 21.390625 14.125 C 20.789062 14.125 20.296875 14.589844 20.261719 15.183594 C 19.539062 15.230469 18.78125 15.253906 18 15.253906 C 17.21875 15.253906 16.460938 15.230469 15.738281 15.183594 C 15.703125 14.589844 15.210938 14.125 14.609375 14.125 L 8.960938 14.125 L 8.960938 9.605469 C 8.960938 10.851562 13.007812 11.863281 18 11.863281 C 18.78125 11.863281 19.539062 11.839844 20.261719 11.792969 C 21.0625 11.742188 21.820312 11.664062 22.519531 11.5625 C 25.222656 11.171875 27.039062 10.441406 27.039062 9.605469 Z M 27.039062 9.605469 " fill-opacity="1" fill-rule="nonzero"/><path fill="rgb(100%, 91.758728%, 65.489197%)" d="M 27.039062 2.824219 L 27.039062 6.214844 C 27.039062 7.460938 22.992188 8.472656 18 8.472656 C 16.355469 8.472656 14.808594 8.363281 13.480469 8.171875 C 12.628906 8.050781 11.867188 7.890625 11.21875 7.707031 C 9.816406 7.3125 8.960938 6.789062 8.960938 6.214844 L 8.960938 2.824219 C 8.960938 4.074219 13.007812 5.085938 18 5.085938 C 22.992188 5.085938 27.039062 4.074219 27.039062 2.824219 Z M 27.039062 2.824219 " fill-opacity="1" fill-rule="nonzero"/><path fill="rgb(98.81897%, 84.309387%, 43.919373%)" d="M 20.261719 15.183594 C 20.261719 15.207031 20.261719 15.230469 20.261719 15.253906 L 20.261719 18.570312 C 19.539062 18.617188 18.78125 18.644531 18 18.644531 C 17.21875 18.644531 16.460938 18.617188 15.738281 18.570312 L 15.738281 15.253906 C 15.738281 15.230469 15.738281 15.207031 15.738281 15.183594 C 16.460938 15.230469 17.21875 15.253906 18 15.253906 C 18.78125 15.253906 19.539062 15.230469 20.261719 15.183594 Z M 20.261719 15.183594 " fill-opacity="1" fill-rule="nonzero"/><path fill="rgb(98.81897%, 84.309387%, 43.919373%)" d="M 22.519531 11.5625 C 21.820312 11.664062 21.0625 11.742188 20.261719 11.792969 C 19.539062 11.839844 18.78125 11.863281 18 11.863281 C 13.007812 11.863281 8.960938 10.851562 8.960938 9.605469 L 8.960938 6.214844 C 8.960938 6.789062 9.816406 7.3125 11.21875 7.707031 C 11.867188 7.890625 12.628906 8.050781 13.480469 8.171875 C 14.808594 8.363281 16.355469 8.472656 18 8.472656 C 22.992188 8.472656 27.039062 7.460938 27.039062 6.214844 L 27.039062 9.605469 C 27.039062 10.441406 25.222656 11.171875 22.519531 11.5625 Z M 22.519531 11.5625 " fill-opacity="1" fill-rule="nonzero"/><path fill="rgb(98.81897%, 84.309387%, 43.919373%)" d="M 27.039062 2.824219 C 27.039062 2.972656 26.980469 3.121094 26.867188 3.265625 C 26.75 3.410156 26.578125 3.550781 26.351562 3.691406 C 26.125 3.828125 25.84375 3.957031 25.515625 4.082031 C 25.1875 4.203125 24.8125 4.316406 24.390625 4.421875 C 23.972656 4.527344 23.515625 4.621094 23.023438 4.703125 C 22.527344 4.785156 22.007812 4.855469 21.460938 4.914062 C 20.910156 4.96875 20.34375 5.011719 19.761719 5.042969 C 19.179688 5.070312 18.59375 5.085938 18 5.085938 C 17.40625 5.085938 16.820312 5.070312 16.238281 5.042969 C 15.65625 5.011719 15.089844 4.96875 14.539062 4.914062 C 13.992188 4.855469 13.472656 4.785156 12.976562 4.703125 C 12.484375 4.621094 12.027344 4.527344 11.609375 4.421875 C 11.1875 4.316406 10.8125 4.203125 10.484375 4.082031 C 10.15625 3.957031 9.875 3.828125 9.648438 3.691406 C 9.421875 3.550781 9.25 3.410156 9.132812 3.265625 C 9.019531 3.121094 8.960938 2.972656 8.960938 2.824219 C 8.960938 2.675781 9.019531 2.53125 9.132812 2.382812 C 9.25 2.238281 9.421875 2.097656 9.648438 1.960938 C 9.875 1.824219 10.15625 1.691406 10.484375 1.570312 C 10.8125 1.445312 11.1875 1.332031 11.609375 1.226562 C 12.027344 1.121094 12.484375 1.027344 12.976562 0.945312 C 13.472656 0.863281 13.992188 0.792969 14.539062 0.738281 C 15.089844 0.679688 15.65625 0.636719 16.238281 0.609375 C 16.820312 0.578125 17.40625 0.566406 18 0.566406 C 18.59375 0.566406 19.179688 0.578125 19.761719 0.609375 C 20.34375 0.636719 20.910156 0.679688 21.460938 0.738281 C 22.007812 0.792969 22.527344 0.863281 23.023438 0.945312 C 23.515625 1.027344 23.972656 1.121094 24.390625 1.226562 C 24.8125 1.332031 25.1875 1.445312 25.515625 1.570312 C 25.84375 1.691406 26.125 1.824219 26.351562 1.960938 C 26.578125 2.097656 26.75 2.238281 26.867188 2.382812 C 26.980469 2.53125 27.039062 2.675781 27.039062 2.824219 Z M 27.039062 2.824219 " fill-opacity="1" fill-rule="nonzero"/><path fill="rgb(66.668701%, 69.799805%, 74.119568%)" d="M 33.820312 15.253906 L 33.820312 33.332031 C 33.820312 33.957031 33.3125 34.460938 32.6875 34.460938 L 21.390625 34.460938 C 20.765625 34.460938 20.261719 33.957031 20.261719 33.332031 L 20.261719 15.253906 C 20.261719 15.230469 20.261719 15.207031 20.261719 15.183594 C 20.296875 14.589844 20.789062 14.125 21.390625 14.125 L 32.6875 14.125 C 33.3125 14.125 33.820312 14.628906 33.820312 15.253906 Z M 33.820312 15.253906 " fill-opacity="1" fill-rule="nonzero"/><path fill="rgb(66.668701%, 69.799805%, 74.119568%)" d="M 15.738281 18.570312 L 15.738281 33.332031 C 15.738281 33.957031 15.234375 34.460938 14.609375 34.460938 L 3.3125 34.460938 C 2.6875 34.460938 2.179688 33.957031 2.179688 33.332031 L 2.179688 15.253906 C 2.179688 14.628906 2.6875 14.125 3.3125 14.125 L 14.609375 14.125 C 15.210938 14.125 15.703125 14.589844 15.738281 15.183594 C 15.738281 15.207031 15.738281 15.230469 15.738281 15.253906 Z M 15.738281 18.570312 " fill-opacity="1" fill-rule="nonzero"/><path fill="rgb(100%, 50.979614%, 43.139648%)" d="M 31.558594 16.949219 L 31.558594 18.078125 C 31.558594 18.390625 31.304688 18.644531 30.992188 18.644531 L 23.085938 18.644531 C 22.773438 18.644531 22.519531 18.390625 22.519531 18.078125 L 22.519531 16.949219 C 22.519531 16.636719 22.773438 16.382812 23.085938 16.382812 L 30.992188 16.382812 C 31.304688 16.382812 31.558594 16.636719 31.558594 16.949219 Z M 31.558594 16.949219 " fill-opacity="1" fill-rule="nonzero"/><path fill="rgb(100%, 50.979614%, 43.139648%)" d="M 31.558594 21.46875 L 31.558594 27.117188 C 31.558594 27.429688 31.304688 27.683594 30.992188 27.683594 L 23.085938 27.683594 C 22.773438 27.683594 22.519531 27.429688 22.519531 27.117188 L 22.519531 21.46875 C 22.519531 21.15625 22.773438 20.902344 23.085938 20.902344 L 30.992188 20.902344 C 31.304688 20.902344 31.558594 21.15625 31.558594 21.46875 Z M 31.558594 21.46875 " fill-opacity="1" fill-rule="nonzero"/><path fill="rgb(100%, 50.979614%, 43.139648%)" d="M 31.558594 30.507812 L 31.558594 31.636719 C 31.558594 31.949219 31.304688 32.203125 30.992188 32.203125 L 23.085938 32.203125 C 22.773438 32.203125 22.519531 31.949219 22.519531 31.636719 L 22.519531 30.507812 C 22.519531 30.195312 22.773438 29.941406 23.085938 29.941406 L 30.992188 29.941406 C 31.304688 29.941406 31.558594 30.195312 31.558594 30.507812 Z M 31.558594 30.507812 " fill-opacity="1" fill-rule="nonzero"/><path fill="rgb(100%, 50.979614%, 43.139648%)" d="M 13.480469 30.507812 L 13.480469 31.636719 C 13.480469 31.949219 13.226562 32.203125 12.914062 32.203125 L 5.007812 32.203125 C 4.695312 32.203125 4.441406 31.949219 4.441406 31.636719 L 4.441406 30.507812 C 4.441406 30.195312 4.695312 29.941406 5.007812 29.941406 L 12.914062 29.941406 C 13.226562 29.941406 13.480469 30.195312 13.480469 30.507812 Z M 13.480469 30.507812 " fill-opacity="1" fill-rule="nonzero"/><path fill="rgb(100%, 50.979614%, 43.139648%)" d="M 13.480469 21.46875 L 13.480469 27.117188 C 13.480469 27.429688 13.226562 27.683594 12.914062 27.683594 L 5.007812 27.683594 C 4.695312 27.683594 4.441406 27.429688 4.441406 27.117188 L 4.441406 21.46875 C 4.441406 21.15625 4.695312 20.902344 5.007812 20.902344 L 12.914062 20.902344 C 13.226562 20.902344 13.480469 21.15625 13.480469 21.46875 Z M 13.480469 21.46875 " fill-opacity="1" fill-rule="nonzero"/><path fill="rgb(100%, 50.979614%, 43.139648%)" d="M 13.480469 16.949219 L 13.480469 18.078125 C 13.480469 18.390625 13.226562 18.644531 12.914062 18.644531 L 5.007812 18.644531 C 4.695312 18.644531 4.441406 18.390625 4.441406 18.078125 L 4.441406 16.949219 C 4.441406 16.636719 4.695312 16.382812 5.007812 16.382812 L 12.914062 16.382812 C 13.226562 16.382812 13.480469 16.636719 13.480469 16.949219 Z M 13.480469 16.949219 " fill-opacity="1" fill-rule="nonzero"/><g clip-path="url(#clip-0)"><path fill="rgb(0%, 0%, 0%)" d="M 32.6875 13.558594 L 27.605469 13.558594 L 27.605469 10.167969 L 29.515625 10.167969 L 30.332031 11.804688 C 30.523438 12.191406 30.914062 12.429688 31.34375 12.429688 L 33.253906 12.429688 L 33.253906 11.300781 L 31.34375 11.300781 L 30.527344 9.664062 C 30.332031 9.277344 29.945312 9.039062 29.515625 9.039062 L 27.605469 9.039062 L 27.605469 7.910156 L 33.253906 7.910156 L 33.253906 6.78125 L 27.605469 6.78125 L 27.605469 5.648438 L 29.515625 5.648438 C 29.945312 5.648438 30.332031 5.410156 30.527344 5.023438 L 31.34375 3.390625 L 33.253906 3.390625 L 33.253906 2.261719 L 31.34375 2.261719 C 30.914062 2.261719 30.523438 2.5 30.332031 2.882812 L 29.515625 4.519531 L 27.605469 4.519531 L 27.605469 2.824219 C 27.605469 1.910156 26.570312 1.1875 24.527344 0.679688 C 22.777344 0.242188 20.460938 0 18 0 C 15.539062 0 13.222656 0.242188 11.472656 0.679688 C 9.429688 1.1875 8.394531 1.910156 8.394531 2.824219 L 8.394531 4.519531 L 6.484375 4.519531 L 5.667969 2.882812 C 5.476562 2.5 5.085938 2.261719 4.65625 2.261719 L 2.746094 2.261719 L 2.746094 3.390625 L 4.65625 3.390625 L 5.472656 5.023438 C 5.667969 5.410156 6.054688 5.648438 6.484375 5.648438 L 8.394531 5.648438 L 8.394531 6.78125 L 2.746094 6.78125 L 2.746094 7.910156 L 8.394531 7.910156 L 8.394531 9.039062 L 6.484375 9.039062 C 6.054688 9.039062 5.667969 9.277344 5.472656 9.664062 L 4.65625 11.300781 L 2.746094 11.300781 L 2.746094 12.429688 L 4.65625 12.429688 C 5.085938 12.429688 5.476562 12.191406 5.667969 11.804688 L 6.484375 10.167969 L 8.394531 10.167969 L 8.394531 13.558594 L 3.3125 13.558594 C 2.375 13.558594 1.617188 14.320312 1.617188 15.253906 L 1.617188 33.332031 C 1.617188 34.265625 2.375 35.027344 3.3125 35.027344 L 14.609375 35.027344 C 15.542969 35.027344 16.304688 34.265625 16.304688 33.332031 L 16.304688 19.167969 C 16.863281 19.195312 17.429688 19.207031 18 19.207031 C 18.570312 19.207031 19.136719 19.195312 19.695312 19.167969 L 19.695312 33.332031 C 19.695312 34.265625 20.457031 35.027344 21.390625 35.027344 L 32.6875 35.027344 C 33.625 35.027344 34.382812 34.265625 34.382812 33.332031 L 34.382812 15.253906 C 34.382812 14.320312 33.625 13.558594 32.6875 13.558594 Z M 21.953125 9.605469 L 21.953125 11.066406 C 21.589844 11.113281 21.210938 11.152344 20.824219 11.183594 L 20.824219 10.167969 L 19.695312 10.167969 L 19.695312 11.257812 C 19.140625 11.285156 18.574219 11.300781 18 11.300781 C 15.628906 11.300781 13.410156 11.070312 11.746094 10.652344 C 9.921875 10.199219 9.527344 9.703125 9.527344 9.605469 L 9.527344 7.65625 C 10.015625 7.925781 10.664062 8.160156 11.472656 8.359375 C 13.222656 8.796875 15.539062 9.039062 18 9.039062 C 20.460938 9.039062 22.777344 8.796875 24.527344 8.359375 C 25.335938 8.160156 25.984375 7.925781 26.472656 7.65625 L 26.472656 9.605469 C 26.472656 9.703125 26.078125 10.199219 24.253906 10.652344 C 23.890625 10.746094 23.496094 10.828125 23.085938 10.898438 L 23.085938 9.605469 Z M 11.746094 1.773438 C 13.410156 1.359375 15.628906 1.128906 18 1.128906 C 20.371094 1.128906 22.589844 1.359375 24.253906 1.773438 C 26.078125 2.230469 26.472656 2.726562 26.472656 2.824219 C 26.472656 2.921875 26.078125 3.417969 24.253906 3.875 C 22.589844 4.289062 20.371094 4.519531 18 4.519531 C 15.628906 4.519531 13.410156 4.289062 11.746094 3.875 C 9.921875 3.417969 9.527344 2.921875 9.527344 2.824219 C 9.527344 2.726562 9.921875 2.230469 11.746094 1.773438 Z M 9.527344 4.269531 C 10.015625 4.535156 10.664062 4.769531 11.472656 4.972656 C 13.222656 5.410156 15.539062 5.648438 18 5.648438 C 20.460938 5.648438 22.777344 5.410156 24.527344 4.972656 C 25.335938 4.769531 25.984375 4.535156 26.472656 4.269531 L 26.472656 6.214844 C 26.472656 6.3125 26.078125 6.808594 24.253906 7.265625 C 22.589844 7.679688 20.371094 7.910156 18 7.910156 C 16.601562 7.910156 15.257812 7.828125 14.046875 7.679688 L 14.046875 6.214844 L 12.914062 6.214844 L 12.914062 7.507812 C 12.515625 7.441406 12.136719 7.359375 11.785156 7.273438 L 11.785156 5.648438 L 10.65625 5.648438 L 10.65625 6.929688 C 9.753906 6.589844 9.527344 6.289062 9.527344 6.214844 Z M 9.527344 11.046875 C 10.015625 11.3125 10.664062 11.546875 11.472656 11.75 C 13.222656 12.1875 15.539062 12.429688 18 12.429688 C 20.460938 12.429688 22.777344 12.1875 24.527344 11.75 C 25.335938 11.546875 25.984375 11.3125 26.472656 11.046875 L 26.472656 13.558594 L 21.390625 13.558594 C 20.671875 13.558594 20.054688 14.007812 19.808594 14.640625 C 18.625 14.703125 17.375 14.703125 16.191406 14.640625 C 15.945312 14.007812 15.328125 13.558594 14.609375 13.558594 L 9.527344 13.558594 Z M 15.175781 33.332031 C 15.175781 33.644531 14.921875 33.898438 14.609375 33.898438 L 3.3125 33.898438 C 3 33.898438 2.746094 33.644531 2.746094 33.332031 L 2.746094 15.253906 C 2.746094 14.941406 3 14.6875 3.3125 14.6875 L 14.609375 14.6875 C 14.921875 14.6875 15.175781 14.941406 15.175781 15.253906 Z M 16.304688 18.039062 L 16.304688 15.78125 C 16.863281 15.804688 17.429688 15.820312 18 15.820312 C 18.570312 15.820312 19.136719 15.804688 19.695312 15.78125 L 19.695312 18.039062 C 18.582031 18.089844 17.417969 18.089844 16.304688 18.039062 Z M 33.253906 33.332031 C 33.253906 33.644531 33 33.898438 32.6875 33.898438 L 21.390625 33.898438 C 21.078125 33.898438 20.824219 33.644531 20.824219 33.332031 L 20.824219 15.253906 C 20.824219 14.941406 21.078125 14.6875 21.390625 14.6875 L 32.6875 14.6875 C 33 14.6875 33.253906 14.941406 33.253906 15.253906 Z M 33.253906 33.332031 " fill-opacity="1" fill-rule="nonzero"/></g><path fill="rgb(0%, 0%, 0%)" d="M 30.992188 15.820312 L 23.085938 15.820312 C 22.460938 15.820312 21.953125 16.324219 21.953125 16.949219 L 21.953125 18.078125 C 21.953125 18.703125 22.460938 19.207031 23.085938 19.207031 L 30.992188 19.207031 C 31.617188 19.207031 32.125 18.703125 32.125 18.078125 L 32.125 16.949219 C 32.125 16.324219 31.617188 15.820312 30.992188 15.820312 Z M 27.605469 16.949219 L 28.734375 16.949219 L 28.734375 18.078125 L 27.605469 18.078125 Z M 26.472656 18.078125 L 25.34375 18.078125 L 25.34375 16.949219 L 26.472656 16.949219 Z M 23.085938 16.949219 L 24.214844 16.949219 L 24.214844 18.078125 L 23.085938 18.078125 Z M 30.992188 18.078125 L 29.863281 18.078125 L 29.863281 16.949219 L 30.992188 16.949219 Z M 30.992188 18.078125 " fill-opacity="1" fill-rule="nonzero"/><path fill="rgb(0%, 0%, 0%)" d="M 30.992188 20.339844 L 23.085938 20.339844 C 22.460938 20.339844 21.953125 20.84375 21.953125 21.46875 L 21.953125 27.117188 C 21.953125 27.742188 22.460938 28.246094 23.085938 28.246094 L 30.992188 28.246094 C 31.617188 28.246094 32.125 27.742188 32.125 27.117188 L 32.125 21.46875 C 32.125 20.84375 31.617188 20.339844 30.992188 20.339844 Z M 30.992188 23.726562 L 27.605469 23.726562 L 27.605469 21.46875 L 30.992188 21.46875 Z M 28.734375 24.859375 L 28.734375 27.117188 L 27.605469 27.117188 L 27.605469 24.859375 Z M 26.472656 23.726562 L 25.34375 23.726562 L 25.34375 21.46875 L 26.472656 21.46875 Z M 24.214844 21.46875 L 24.214844 23.726562 L 23.085938 23.726562 L 23.085938 21.46875 Z M 23.085938 24.859375 L 26.472656 24.859375 L 26.472656 27.117188 L 23.085938 27.117188 Z M 29.863281 27.117188 L 29.863281 24.859375 L 30.992188 24.859375 L 30.992188 27.117188 Z M 29.863281 27.117188 " fill-opacity="1" fill-rule="nonzero"/><path fill="rgb(0%, 0%, 0%)" d="M 30.992188 29.378906 L 23.085938 29.378906 C 22.460938 29.378906 21.953125 29.882812 21.953125 30.507812 L 21.953125 31.636719 C 21.953125 32.261719 22.460938 32.765625 23.085938 32.765625 L 30.992188 32.765625 C 31.617188 32.765625 32.125 32.261719 32.125 31.636719 L 32.125 30.507812 C 32.125 29.882812 31.617188 29.378906 30.992188 29.378906 Z M 27.605469 30.507812 L 28.734375 30.507812 L 28.734375 31.636719 L 27.605469 31.636719 Z M 26.472656 31.636719 L 25.34375 31.636719 L 25.34375 30.507812 L 26.472656 30.507812 Z M 23.085938 30.507812 L 24.214844 30.507812 L 24.214844 31.636719 L 23.085938 31.636719 Z M 30.992188 31.636719 L 29.863281 31.636719 L 29.863281 30.507812 L 30.992188 30.507812 Z M 30.992188 31.636719 " fill-opacity="1" fill-rule="nonzero"/><path fill="rgb(0%, 0%, 0%)" d="M 12.914062 15.820312 L 5.007812 15.820312 C 4.382812 15.820312 3.875 16.324219 3.875 16.949219 L 3.875 18.078125 C 3.875 18.703125 4.382812 19.207031 5.007812 19.207031 L 12.914062 19.207031 C 13.539062 19.207031 14.046875 18.703125 14.046875 18.078125 L 14.046875 16.949219 C 14.046875 16.324219 13.539062 15.820312 12.914062 15.820312 Z M 9.527344 16.949219 L 10.65625 16.949219 L 10.65625 18.078125 L 9.527344 18.078125 Z M 8.394531 18.078125 L 7.265625 18.078125 L 7.265625 16.949219 L 8.394531 16.949219 Z M 5.007812 16.949219 L 6.136719 16.949219 L 6.136719 18.078125 L 5.007812 18.078125 Z M 12.914062 18.078125 L 11.785156 18.078125 L 11.785156 16.949219 L 12.914062 16.949219 Z M 12.914062 18.078125 " fill-opacity="1" fill-rule="nonzero"/><path fill="rgb(0%, 0%, 0%)" d="M 12.914062 20.339844 L 5.007812 20.339844 C 4.382812 20.339844 3.875 20.84375 3.875 21.46875 L 3.875 27.117188 C 3.875 27.742188 4.382812 28.246094 5.007812 28.246094 L 12.914062 28.246094 C 13.539062 28.246094 14.046875 27.742188 14.046875 27.117188 L 14.046875 21.46875 C 14.046875 20.84375 13.539062 20.339844 12.914062 20.339844 Z M 12.914062 23.726562 L 9.527344 23.726562 L 9.527344 21.46875 L 12.914062 21.46875 Z M 10.65625 24.859375 L 10.65625 27.117188 L 9.527344 27.117188 L 9.527344 24.859375 Z M 8.394531 23.726562 L 7.265625 23.726562 L 7.265625 21.46875 L 8.394531 21.46875 Z M 6.136719 21.46875 L 6.136719 23.726562 L 5.007812 23.726562 L 5.007812 21.46875 Z M 5.007812 24.859375 L 8.394531 24.859375 L 8.394531 27.117188 L 5.007812 27.117188 Z M 11.785156 27.117188 L 11.785156 24.859375 L 12.914062 24.859375 L 12.914062 27.117188 Z M 11.785156 27.117188 " fill-opacity="1" fill-rule="nonzero"/><path fill="rgb(0%, 0%, 0%)" d="M 12.914062 29.378906 L 5.007812 29.378906 C 4.382812 29.378906 3.875 29.882812 3.875 30.507812 L 3.875 31.636719 C 3.875 32.261719 4.382812 32.765625 5.007812 32.765625 L 12.914062 32.765625 C 13.539062 32.765625 14.046875 32.261719 14.046875 31.636719 L 14.046875 30.507812 C 14.046875 29.882812 13.539062 29.378906 12.914062 29.378906 Z M 9.527344 30.507812 L 10.65625 30.507812 L 10.65625 31.636719 L 9.527344 31.636719 Z M 8.394531 31.636719 L 7.265625 31.636719 L 7.265625 30.507812 L 8.394531 30.507812 Z M 5.007812 30.507812 L 6.136719 30.507812 L 6.136719 31.636719 L 5.007812 31.636719 Z M 12.914062 31.636719 L 11.785156 31.636719 L 11.785156 30.507812 L 12.914062 30.507812 Z M 12.914062 31.636719 " fill-opacity="1" fill-rule="nonzero"/><g clip-path="url(#clip-1)"><path fill="rgb(0%, 0%, 0%)" d="M 0.488281 2.261719 L 1.617188 2.261719 L 1.617188 3.390625 L 0.488281 3.390625 Z M 0.488281 2.261719 " fill-opacity="1" fill-rule="nonzero"/></g><g clip-path="url(#clip-2)"><path fill="rgb(0%, 0%, 0%)" d="M 0.488281 11.300781 L 1.617188 11.300781 L 1.617188 12.429688 L 0.488281 12.429688 Z M 0.488281 11.300781 " fill-opacity="1" fill-rule="nonzero"/></g><g clip-path="url(#clip-3)"><path fill="rgb(0%, 0%, 0%)" d="M 0.488281 6.78125 L 1.617188 6.78125 L 1.617188 7.910156 L 0.488281 7.910156 Z M 0.488281 6.78125 " fill-opacity="1" fill-rule="nonzero"/></g><g clip-path="url(#clip-4)"><path fill="rgb(0%, 0%, 0%)" d="M 34.382812 2.261719 L 35.511719 2.261719 L 35.511719 3.390625 L 34.382812 3.390625 Z M 34.382812 2.261719 " fill-opacity="1" fill-rule="nonzero"/></g><g clip-path="url(#clip-5)"><path fill="rgb(0%, 0%, 0%)" d="M 34.382812 11.300781 L 35.511719 11.300781 L 35.511719 12.429688 L 34.382812 12.429688 Z M 34.382812 11.300781 " fill-opacity="1" fill-rule="nonzero"/></g><g clip-path="url(#clip-6)"><path fill="rgb(0%, 0%, 0%)" d="M 34.382812 6.78125 L 35.511719 6.78125 L 35.511719 7.910156 L 34.382812 7.910156 Z M 34.382812 6.78125 " fill-opacity="1" fill-rule="nonzero"/></g></svg>